<svg xmlns="http://www.w3.org/2000/svg" width="512" height="512" viewBox="0 0 512 512" fill="none">
  <defs>
    <linearGradient id="pwa-bg" x1="8%" y1="0%" x2="92%" y2="100%">
      <stop offset="0%" stop-color="#6FF8B5"/>
      <stop offset="45%" stop-color="#42E894"/>
      <stop offset="100%" stop-color="#1FC96E"/>
    </linearGradient>
    <filter id="soft" x="-20%" y="-20%" width="140%" height="140%">
      <feDropShadow dx="0" dy="4" stdDeviation="6" flood-color="#0a5c32" flood-opacity="0.18"/>
    </filter>
  </defs>
  <!-- Fondo luminoso (mejor legibilidad en launcher Android / iOS) -->
  <rect width="512" height="512" rx="112" fill="url(#pwa-bg)"/>
  <!-- Marca: mismas formas que en /logo.svg, centradas y ampliadas -->
  <g filter="url(#soft)" transform="translate(126 168) scale(5.35)">
    <path d="M1.28281 21.5147C0.625302 16.0502 4.52218 11.0872 9.98673 10.4297L36.9077 7.19052C42.3722 6.53301 47.3352 10.4299 47.9927 15.8944C48.6502 21.359 44.7533 26.3219 39.2888 26.9794L12.3678 30.2186C6.90323 30.8761 1.94032 26.9793 1.28281 21.5147Z" fill="#39F592" stroke="#0d3d28" stroke-width="0.85"/>
    <path d="M11.9951 26.9351C9.56472 27.2369 7.62437 26.4932 7.09229 24.5527L9.59699 23.4985C9.76079 25.5219 10.9597 26.5435 12.2192 26.387C13.4256 26.2372 14.2413 25.2069 14.0919 23.9249C13.7313 20.8298 8.11841 22.0843 7.67662 18.2932C7.42051 16.0955 9.10823 14.3624 12.0886 13.9922C14.1997 13.73 16.118 14.4393 16.677 16.3022L14.2987 17.3593C14.2081 15.8099 13.195 14.375 11.9355 14.5315C10.7469 14.6791 9.99564 15.6456 10.1258 16.7628C10.4588 19.6198 16.2888 18.3755 16.7476 22.3131C17.0315 24.7489 15.0819 26.5517 11.9951 26.9351Z" fill="#0d3d28"/>
    <path d="M22.6493 23.661C23.7137 23.5288 24.7709 23.0259 25.3567 21.8756L25.5604 21.9246C25.0849 24.176 23.7071 25.4805 21.5783 25.7449C19.2189 26.0379 17.4947 24.5242 17.2045 22.0334C16.8075 18.627 18.8356 16.1084 21.8869 15.7294C24.1222 15.4518 25.3224 16.176 25.4505 17.2748C25.666 19.1246 23.8162 19.9303 20.7268 20.9085L19.8788 21.1996C20.144 22.8574 21.1946 23.8417 22.6493 23.661ZM21.6628 16.2775C20.3146 16.4449 19.6922 18.8261 19.8191 20.6868L20.6315 20.4001C21.9967 19.9147 23.0495 18.9107 22.8852 17.5005C22.8254 16.9877 22.4612 16.1783 21.6628 16.2775Z" fill="#0d3d28"/>
    <path d="M28.9111 24.8342C27.8112 24.9708 27.1043 24.464 26.9933 23.5117C26.9528 23.1637 26.964 22.6421 26.9696 22.3813L27.2736 13.8713C27.3054 13.2171 27.0825 13.0032 26.4665 12.9683L26.0876 12.9596L26.0932 12.6988L29.7502 11.1856L29.9986 11.1547L29.6079 22.1651C29.5916 22.3343 29.5946 22.6684 29.6159 22.8515C29.6607 23.2361 29.8992 23.4295 30.2186 23.3898C30.5201 23.3523 30.7912 23.2072 31.2615 22.61L31.4581 22.7528C30.8588 23.942 30.0288 24.6953 28.9111 24.8342Z" fill="#0d3d28"/>
    <path d="M31.9926 24.1913L32.332 15.2125L30.8596 15.3954L30.8708 14.8737L32.3432 14.6909L32.3764 14.2037C32.4446 11.8542 34.2487 10.3482 36.5727 10.0595C38.1161 9.86785 39.1522 10.1107 39.6216 11.2044L37.6208 12.5676C37.5595 11.4233 37.1292 10.5106 36.4373 10.5966C35.4793 10.7156 35.0512 12.2922 35.0253 13.6146L35.0042 14.3604L37.4524 14.0563L37.4412 14.5779L34.9753 14.8842L34.6181 23.8652L31.9926 24.1913Z" fill="#0d3d28"/>
    <path d="M36.9646 19.1148L37.0606 17.4679L43.0923 16.7187L43.014 18.3634L36.9646 19.1148Z" fill="#0d3d28"/>
  </g>
</svg>
