<svg width="33" height="21" viewBox="0 0 33 21" fill="none" xmlns="http://www.w3.org/2000/svg">
<path d="M20.9517 2.15625H12.0214V18.0089H20.9517V2.15625Z" fill="#FF5A00"/>
<path d="M12.6161 10.0833C12.6161 6.86254 14.1485 4.00396 16.5 2.15698C14.7694 0.81254 12.5864 0 10.2052 0C4.56425 0 0 4.50976 0 10.0833C0 15.6569 4.56425 20.1667 10.2052 20.1667C12.5864 20.1667 14.7694 19.3541 16.5 18.0097C14.1452 16.1888 12.6161 13.3041 12.6161 10.0833Z" fill="#EB001B"/>
<path d="M33 10.0833C33 15.6569 28.4357 20.1667 22.7948 20.1667C20.4136 20.1667 18.2306 19.3541 16.5 18.0097C18.8812 16.1594 20.3839 13.3041 20.3839 10.0833C20.3839 6.86254 18.8515 4.00396 16.5 2.15698C18.2273 0.81254 20.4103 0 22.7915 0C28.4357 0 33 4.53913 33 10.0833Z" fill="#F79E1B"/>
</svg>
