<svg width="37" height="9" viewBox="0 0 37 9" fill="none" xmlns="http://www.w3.org/2000/svg">
<path fill-rule="evenodd" clip-rule="evenodd" d="M1.82708 8.17476H0V0H1.82708V8.17476ZM6.39048 0H4.60246C4.60246 1.50437 3.92865 2.88517 2.75394 3.78848L2.04557 4.33305L4.79024 8.17506H7.04695L4.52144 4.63978C5.71863 3.4161 6.39048 1.76976 6.39048 0ZM9.30503 8.17249H7.57956V0.00159007H9.30503V8.17249ZM14.5202 2.52036V2.88191C14.0545 2.55579 13.4924 2.36415 12.8861 2.36415C11.2815 2.36415 9.98081 3.69936 9.98081 5.34654C9.98081 6.99371 11.2815 8.329 12.8861 8.329C13.4924 8.329 14.0545 8.13736 14.5202 7.81131V8.17249H16.1688V2.52036H14.5202ZM14.5147 5.34654C14.5147 6.14968 13.8459 6.80086 13.021 6.80086C12.196 6.80086 11.5272 6.14968 11.5272 5.34654C11.5272 4.54339 12.196 3.89244 13.021 3.89244C13.8459 3.89244 14.5147 4.54339 14.5147 5.34654ZM31.9118 2.88191V2.52036H33.5603V8.17249H31.9118V7.81131C31.4461 8.13736 30.884 8.329 30.2776 8.329C28.673 8.329 27.3723 6.99371 27.3723 5.34654C27.3723 3.69936 28.673 2.36415 30.2776 2.36415C30.884 2.36415 31.4461 2.55579 31.9118 2.88191ZM30.4126 6.80086C31.2376 6.80086 31.9063 6.14968 31.9063 5.34654C31.9063 4.54339 31.2376 3.89244 30.4126 3.89244C29.5875 3.89244 28.9188 4.54339 28.9188 5.34654C28.9188 6.14968 29.5875 6.80086 30.4126 6.80086ZM34.2758 7.22972C34.2758 6.64321 34.739 6.16778 35.3103 6.16778C35.8816 6.16778 36.3448 6.64321 36.3448 7.22972C36.3448 7.81616 35.8816 8.29167 35.3103 8.29167C34.739 8.29167 34.2758 7.81616 34.2758 7.22972ZM24.4429 2.36831C23.7844 2.36831 23.1613 2.5782 22.7446 3.15722V2.52066H21.1032V8.17249H22.7647V5.20229C22.7647 4.34274 23.3262 3.9219 24.0022 3.9219C24.7267 3.9219 25.1433 4.36614 25.1433 5.19056V8.17249H26.7898V4.57815C26.7898 3.26285 25.771 2.36831 24.4429 2.36831ZM18.719 2.52043V3.25656C19.0494 2.81497 19.6652 2.52073 20.3347 2.52073V4.16548L20.3294 4.16526L20.3255 4.1651L20.3212 4.16488L20.3151 4.16473C19.6628 4.16473 18.7228 4.64327 18.7228 5.53364V8.17249H17.0312V2.52043H18.719Z" fill="#17120F"/>
</svg>
