<svg width="44" height="44" viewBox="0 0 44 44" fill="none" xmlns="http://www.w3.org/2000/svg">
<rect width="44" height="44" rx="4" fill="#F4B6C7"/>
<path fill-rule="evenodd" clip-rule="evenodd" d="M5.82708 25.1748H4V17H5.82708V25.1748ZM10.3905 17H8.60246C8.60246 18.5044 7.92865 19.8852 6.75394 20.7885L6.04557 21.333L8.79024 25.1751H11.047L8.52144 21.6398C9.71863 20.4161 10.3905 18.7698 10.3905 17ZM13.305 25.1725H11.5796V17.0016H13.305V25.1725ZM18.5202 19.5204V19.8819C18.0545 19.5558 17.4924 19.3641 16.8861 19.3641C15.2815 19.3641 13.9808 20.6994 13.9808 22.3465C13.9808 23.9937 15.2815 25.329 16.8861 25.329C17.4924 25.329 18.0545 25.1374 18.5202 24.8113V25.1725H20.1688V19.5204H18.5202ZM18.5147 22.3465C18.5147 23.1497 17.8459 23.8009 17.021 23.8009C16.196 23.8009 15.5272 23.1497 15.5272 22.3465C15.5272 21.5434 16.196 20.8924 17.021 20.8924C17.8459 20.8924 18.5147 21.5434 18.5147 22.3465ZM35.9118 19.8819V19.5204H37.5603V25.1725H35.9118V24.8113C35.4461 25.1374 34.884 25.329 34.2776 25.329C32.673 25.329 31.3723 23.9937 31.3723 22.3465C31.3723 20.6994 32.673 19.3641 34.2776 19.3641C34.884 19.3641 35.4461 19.5558 35.9118 19.8819ZM34.4126 23.8009C35.2376 23.8009 35.9063 23.1497 35.9063 22.3465C35.9063 21.5434 35.2376 20.8924 34.4126 20.8924C33.5875 20.8924 32.9188 21.5434 32.9188 22.3465C32.9188 23.1497 33.5875 23.8009 34.4126 23.8009ZM38.2758 24.2297C38.2758 23.6432 38.739 23.1678 39.3103 23.1678C39.8816 23.1678 40.3448 23.6432 40.3448 24.2297C40.3448 24.8162 39.8816 25.2917 39.3103 25.2917C38.739 25.2917 38.2758 24.8162 38.2758 24.2297ZM28.4429 19.3683C27.7844 19.3683 27.1613 19.5782 26.7446 20.1572V19.5207H25.1032V25.1725H26.7647V22.2023C26.7647 21.3427 27.3262 20.9219 28.0022 20.9219C28.7267 20.9219 29.1433 21.3661 29.1433 22.1906V25.1725H30.7898V21.5781C30.7898 20.2628 29.771 19.3683 28.4429 19.3683ZM22.719 19.5204V20.2566C23.0494 19.815 23.6652 19.5207 24.3347 19.5207V21.1655L24.3294 21.1653L24.3255 21.1651L24.3212 21.1649L24.3151 21.1647C23.6628 21.1647 22.7228 21.6433 22.7228 22.5336V25.1725H21.0312V19.5204H22.719Z" fill="#17120F"/>
</svg>
