<svg width="176" height="27" viewBox="0 0 176 27" fill="none" xmlns="http://www.w3.org/2000/svg">
<path d="M26.7522 13.2229C26.7522 10.6553 27.2675 8.40268 28.298 6.46491C29.3537 4.50293 30.8367 2.98905 32.747 1.92327C34.6824 0.833281 36.932 0.288284 39.4958 0.288284C41.4814 0.288284 43.2661 0.651615 44.8496 1.37828C46.4582 2.10494 47.7653 3.14649 48.7707 4.50293C49.7761 5.83514 50.417 7.38535 50.6935 9.15356H46.3577C45.9304 7.53068 45.1009 6.25903 43.8693 5.33859C42.6377 4.41815 41.117 3.95793 39.3073 3.95793C37.6735 3.95793 36.2408 4.35759 35.0091 5.15692C33.7775 5.93203 32.8349 7.02202 32.1814 8.4269C31.5279 9.80756 31.2011 11.4062 31.2011 13.2229C31.2011 15.0153 31.5279 16.614 32.1814 18.0188C32.8349 19.4237 33.7775 20.5258 35.0091 21.3252C36.2408 22.1003 37.6735 22.4878 39.3073 22.4878C41.117 22.4878 42.6251 22.0276 43.8316 21.1072C45.0632 20.1867 45.8927 18.9151 46.32 17.2922H50.6558C50.3793 19.0846 49.7384 20.6469 48.733 21.9792C47.7527 23.3114 46.4708 24.3408 44.8873 25.0675C43.3038 25.7941 41.5066 26.1575 39.4958 26.1575C36.932 26.1575 34.6824 25.6246 32.747 24.5588C30.8367 23.493 29.3537 21.9913 28.298 20.0535C27.2675 18.0915 26.7522 15.8146 26.7522 13.2229Z" fill="white"/>
<path d="M61.8556 7.11891C64.1681 7.11891 66.0406 7.79713 67.4734 9.15356C68.9312 10.51 69.6601 12.69 69.6601 15.6935V25.9395H65.5882V15.9115C65.5882 14.1433 65.186 12.799 64.3817 11.8785C63.6025 10.9581 62.4589 10.4979 60.9508 10.4979C59.3421 10.4979 58.0728 11.0429 57.1428 12.1329C56.2379 13.1987 55.7855 14.6641 55.7855 16.5292V25.9395H51.7136V0.506282H55.7855V10.0256C57.2433 8.08779 59.2667 7.11891 61.8556 7.11891Z" fill="white"/>
<path d="M70.3847 16.6745C70.3847 14.761 70.7743 13.0897 71.5535 11.6605C72.3578 10.2072 73.4638 9.09301 74.8714 8.3179C76.3041 7.51857 77.9379 7.11891 79.7727 7.11891C81.6327 7.11891 83.2665 7.48224 84.6741 8.2089C86.1068 8.93556 87.2253 9.965 88.0297 11.2972C88.8591 12.6294 89.2864 14.1918 89.3116 15.9842C89.3116 16.4686 89.2738 16.9652 89.1984 17.4738H74.6451V17.6918C74.7457 19.3147 75.2735 20.5985 76.2287 21.5432C77.1838 22.4878 78.4531 22.9601 80.0366 22.9601C81.2934 22.9601 82.3491 22.6816 83.2037 22.1245C84.0583 21.5432 84.6238 20.7317 84.9003 19.6902H88.9722C88.6203 21.5795 87.6652 23.1297 86.1068 24.3408C84.5736 25.5519 82.6507 26.1575 80.3383 26.1575C78.3275 26.1575 76.568 25.7699 75.0599 24.9948C73.5769 24.1955 72.4207 23.0813 71.5912 21.6522C70.7869 20.2231 70.3847 18.5638 70.3847 16.6745ZM85.1642 14.6035C84.9883 13.2471 84.4227 12.1934 83.4676 11.4426C82.5376 10.6674 81.3563 10.2799 79.9235 10.2799C78.5914 10.2799 77.4352 10.6796 76.4549 11.4789C75.4997 12.254 74.9468 13.2955 74.796 14.6035H85.1642Z" fill="white"/>
<path d="M108.137 19.2542C107.76 21.4099 106.792 23.1055 105.234 24.3408C103.676 25.5519 101.677 26.1575 99.2392 26.1575C97.3289 26.1575 95.6449 25.7699 94.187 24.9948C92.7292 24.1955 91.5981 23.0691 90.7937 21.6158C90.0146 20.1625 89.625 18.4912 89.625 16.6019C89.625 14.7125 90.0271 13.0533 90.8315 11.6242C91.6358 10.1951 92.7669 9.09301 94.2247 8.3179C95.7077 7.51857 97.4169 7.11891 99.3523 7.11891C101.765 7.11891 103.738 7.73657 105.272 8.9719C106.805 10.183 107.76 11.8422 108.137 13.9495H103.952C103.676 12.8838 103.123 12.036 102.293 11.4062C101.464 10.7764 100.446 10.4616 99.2392 10.4616C97.6054 10.4616 96.2858 11.0308 95.2804 12.1692C94.3001 13.3076 93.81 14.7852 93.81 16.6019C93.81 18.4427 94.3001 19.9445 95.2804 21.1072C96.2858 22.2456 97.6054 22.8148 99.2392 22.8148C100.496 22.8148 101.539 22.4999 102.369 21.8702C103.198 21.2162 103.738 20.3442 103.99 19.2542H108.137Z" fill="white"/>
<path d="M109.14 0.506282H113.212V16.4202L122.034 7.33691H126.747L119.546 14.8215L127.199 25.9395H122.373L116.643 17.6918L113.212 21.1798V25.9395H109.14V0.506282Z" fill="white"/>
<path d="M135.037 26.1575C133.102 26.1575 131.38 25.7699 129.872 24.9948C128.389 24.1955 127.233 23.0813 126.403 21.6522C125.599 20.1988 125.197 18.5275 125.197 16.6382C125.197 14.7731 125.599 13.126 126.403 11.6969C127.233 10.2436 128.389 9.11723 129.872 8.3179C131.38 7.51857 133.102 7.11891 135.037 7.11891C136.973 7.11891 138.682 7.51857 140.165 8.3179C141.673 9.11723 142.829 10.2436 143.633 11.6969C144.463 13.126 144.878 14.7731 144.878 16.6382C144.878 18.5275 144.463 20.1988 143.633 21.6522C142.829 23.0813 141.673 24.1955 140.165 24.9948C138.682 25.7699 136.973 26.1575 135.037 26.1575ZM135.037 22.8148C136.746 22.8148 138.116 22.2456 139.147 21.1072C140.202 19.9445 140.73 18.4548 140.73 16.6382C140.73 14.8215 140.202 13.344 139.147 12.2055C138.116 11.0429 136.746 10.4616 135.037 10.4616C133.328 10.4616 131.958 11.0429 130.928 12.2055C129.897 13.344 129.382 14.8215 129.382 16.6382C129.382 18.4548 129.897 19.9445 130.928 21.1072C131.958 22.2456 133.328 22.8148 135.037 22.8148Z" fill="white"/>
<path d="M163.195 7.33691V25.9395H159.614L159.161 23.5778C157.703 25.2976 155.718 26.1575 153.204 26.1575C150.942 26.1575 149.107 25.4792 147.699 24.1228C146.292 22.7664 145.588 20.5864 145.588 17.5828V7.33691H149.66V17.1832C149.66 18.9998 150.037 20.3805 150.791 21.3252C151.545 22.2698 152.664 22.7421 154.147 22.7421C155.705 22.7421 156.924 22.1972 157.804 21.1072C158.684 19.9929 159.123 18.4791 159.123 16.5655V7.33691H163.195Z" fill="white"/>
<path d="M166.301 10.7886H162.945V7.33691H166.301V2.14127H170.41V7.33691H175.048V10.7886H170.41V20.4895C170.41 21.2162 170.561 21.7369 170.863 22.0518C171.164 22.3425 171.679 22.4878 172.408 22.4878H175.5V25.9395H171.579C169.744 25.9395 168.399 25.5277 167.545 24.7041C166.715 23.8806 166.301 22.6089 166.301 20.8892V10.7886Z" fill="white"/>
<path d="M1.03702 17.681C0.505483 13.2634 3.65576 9.25135 8.07337 8.71981L29.8366 6.1012C34.2542 5.56966 38.2663 8.71994 38.7978 13.1375C39.3294 17.5551 36.1791 21.5672 31.7615 22.0988L9.99823 24.7174C5.58063 25.2489 1.56856 22.0986 1.03702 17.681Z" fill="#39F592" stroke="black" stroke-width="0.8"/>
<path d="M9.69692 22.0629C7.73215 22.3069 6.16354 21.7057 5.7334 20.137L7.75823 19.2847C7.89065 20.9205 8.85983 21.7463 9.87807 21.6199C10.8533 21.4988 11.5128 20.6659 11.392 19.6295C11.1004 17.1273 6.56293 18.1415 6.20578 15.0767C5.99874 13.3001 7.36311 11.899 9.77247 11.5998C11.4791 11.3878 13.0299 11.9612 13.4818 13.4671L11.5591 14.3217C11.4859 13.0692 10.6669 11.9092 9.64868 12.0357C8.68781 12.155 8.08051 12.9364 8.18575 13.8395C8.45491 16.1492 13.1679 15.1433 13.5389 18.3265C13.7684 20.2956 12.1923 21.753 9.69692 22.0629Z" fill="black"/>
<path d="M18.3098 19.4161C19.1703 19.3093 20.025 18.9027 20.4986 17.9728L20.6632 18.0124C20.2788 19.8325 19.1651 20.887 17.4441 21.1007C15.5367 21.3376 14.1429 20.1139 13.9082 18.1004C13.5873 15.3465 15.2268 13.3105 17.6936 13.0041C19.5006 12.7797 20.4708 13.3651 20.5744 14.2535C20.7486 15.7488 19.2532 16.4001 16.7557 17.191L16.0702 17.4263C16.2846 18.7665 17.1338 19.5622 18.3098 19.4161ZM17.5124 13.4472C16.4225 13.5825 15.9193 15.5075 16.0219 17.0118L16.6787 16.78C17.7823 16.3876 18.6334 15.5759 18.5006 14.4359C18.4523 14.0214 18.1578 13.367 17.5124 13.4472Z" fill="black"/>
<path d="M23.372 20.3645C22.4828 20.4749 21.9113 20.0653 21.8216 19.2954C21.7888 19.0141 21.7979 18.5924 21.8024 18.3816L22.0483 11.502C22.0739 10.9731 21.8937 10.8003 21.3958 10.772L21.0894 10.765L21.094 10.5541L24.0503 9.33083L24.2511 9.30589L23.9353 18.2068C23.9222 18.3436 23.9245 18.6137 23.9418 18.7617C23.978 19.0726 24.1708 19.2289 24.429 19.1969C24.6728 19.1666 24.8919 19.0493 25.2721 18.5665L25.431 18.6819C24.9465 19.6433 24.2755 20.2523 23.372 20.3645Z" fill="black"/>
<path d="M25.8631 19.8448L26.1375 12.5862L24.9472 12.7341L24.9562 12.3124L26.1465 12.1646L26.1734 11.7707C26.2285 9.87137 27.687 8.65386 29.5657 8.42053C30.8134 8.26556 31.6511 8.46193 32.0305 9.34603L30.4131 10.4481C30.3635 9.52303 30.0156 8.78521 29.4563 8.85467C28.6818 8.95086 28.3357 10.2255 28.3148 11.2945L28.2978 11.8974L30.2769 11.6516L30.2678 12.0733L28.2744 12.3208L27.9856 19.5812L25.8631 19.8448Z" fill="black"/>
<path d="M29.8825 15.7409L29.9602 14.4095L34.8362 13.8039L34.7729 15.1335L29.8825 15.7409Z" fill="black"/>
</svg>
