<svg width="218" height="32" viewBox="0 0 218 32" fill="none" xmlns="http://www.w3.org/2000/svg">
<path d="M33.0923 16C33.0923 12.824 33.7297 10.0375 35.0045 7.64045C36.3103 5.21348 38.1448 3.34082 40.5078 2.02247C42.9018 0.674157 45.6846 0 48.856 0C51.3123 0 53.5198 0.449438 55.4786 1.34831C57.4685 2.24719 59.0853 3.53558 60.329 5.21348C61.5727 6.86142 62.3655 8.77903 62.7075 10.9663H57.3441C56.8156 8.9588 55.7895 7.38577 54.266 6.24719C52.7425 5.10861 50.8614 4.53933 48.6228 4.53933C46.6018 4.53933 44.8296 5.03371 43.306 6.02247C41.7825 6.98127 40.6166 8.32959 39.8082 10.0674C38.9998 11.7753 38.5956 13.7528 38.5956 16C38.5956 18.2172 38.9998 20.1948 39.8082 21.9326C40.6166 23.6704 41.7825 25.0337 43.306 26.0225C44.8296 26.9813 46.6018 27.4607 48.6228 27.4607C50.8614 27.4607 52.727 26.8914 54.2194 25.7528C55.7429 24.6142 56.7689 23.0412 57.2975 21.0337H62.6609C62.3189 23.2509 61.526 25.1835 60.2823 26.8315C59.0697 28.4794 57.4841 29.7528 55.5252 30.6517C53.5664 31.5506 51.3434 32 48.856 32C45.6846 32 42.9018 31.3408 40.5078 30.0225C38.1448 28.7041 36.3103 26.8464 35.0045 24.4494C33.7297 22.0225 33.0923 19.206 33.0923 16Z" fill="black"/>
<path d="M76.515 8.44944C79.3755 8.44944 81.6918 9.28839 83.4641 10.9663C85.2674 12.6442 86.1691 15.3408 86.1691 19.0562V31.7303H81.1322V19.3258C81.1322 17.1386 80.6347 15.4757 79.6397 14.3371C78.6759 13.1985 77.2612 12.6292 75.3957 12.6292C73.4058 12.6292 71.8356 13.3034 70.6852 14.6517C69.5659 15.97 69.0062 17.7828 69.0062 20.0899V31.7303H63.9693V0.269662H69.0062V12.0449C70.8096 9.64794 73.3125 8.44944 76.515 8.44944Z" fill="black"/>
<path d="M87.0654 20.2697C87.0654 17.9026 87.5473 15.8352 88.5112 14.0674C89.5061 12.2697 90.8742 10.8914 92.6153 9.93258C94.3876 8.94382 96.4086 8.44944 98.6783 8.44944C100.979 8.44944 103 8.89888 104.741 9.79775C106.514 10.6966 107.897 11.97 108.892 13.618C109.918 15.2659 110.447 17.1985 110.478 19.4157C110.478 20.015 110.431 20.6292 110.338 21.2584H92.3355V21.5281C92.4599 23.5356 93.1128 25.1236 94.2943 26.2921C95.4758 27.4607 97.046 28.0449 99.0048 28.0449C100.559 28.0449 101.865 27.7004 102.922 27.0112C103.98 26.2921 104.679 25.2884 105.021 24H110.058C109.623 26.3371 108.441 28.2547 106.514 29.7528C104.617 31.2509 102.238 32 99.3779 32C96.8905 32 94.7141 31.5206 92.8485 30.5618C91.0141 29.573 89.5839 28.1948 88.5578 26.427C87.5629 24.6592 87.0654 22.6067 87.0654 20.2697ZM105.348 17.7079C105.13 16.03 104.43 14.7266 103.249 13.7978C102.098 12.839 100.637 12.3595 98.8649 12.3595C97.217 12.3595 95.7867 12.8539 94.5742 13.8427C93.3927 14.8015 92.7086 16.0899 92.5221 17.7079H105.348Z" fill="black"/>
<path d="M133.765 23.4607C133.298 26.1273 132.101 28.2247 130.174 29.7528C128.246 31.2509 125.774 32 122.758 32C120.395 32 118.312 31.5206 116.509 30.5618C114.705 29.573 113.306 28.1798 112.311 26.382C111.347 24.5843 110.865 22.5169 110.865 20.1798C110.865 17.8427 111.363 15.7903 112.358 14.0225C113.353 12.2547 114.752 10.8914 116.555 9.93258C118.39 8.94382 120.504 8.44944 122.898 8.44944C125.883 8.44944 128.324 9.21348 130.22 10.7416C132.117 12.2397 133.298 14.2921 133.765 16.8989H128.588C128.246 15.5805 127.562 14.5318 126.536 13.7528C125.51 12.9738 124.251 12.5843 122.758 12.5843C120.737 12.5843 119.105 13.2884 117.861 14.6966C116.649 16.1049 116.042 17.9326 116.042 20.1798C116.042 22.4569 116.649 24.3146 117.861 25.7528C119.105 27.161 120.737 27.8652 122.758 27.8652C124.313 27.8652 125.603 27.4757 126.629 26.6966C127.655 25.8876 128.324 24.809 128.635 23.4607H133.765Z" fill="black"/>
<path d="M135.005 0.269662H140.042V19.9551L150.955 8.7191H156.785L147.877 17.9775L157.345 31.7303H151.375L144.286 21.5281L140.042 25.8427V31.7303H135.005V0.269662Z" fill="black"/>
<path d="M167.04 32C164.646 32 162.516 31.5206 160.651 30.5618C158.816 29.573 157.386 28.1948 156.36 26.427C155.365 24.6292 154.867 22.5618 154.867 20.2247C154.867 17.9176 155.365 15.8801 156.36 14.1124C157.386 12.3146 158.816 10.9213 160.651 9.93258C162.516 8.94382 164.646 8.44944 167.04 8.44944C169.434 8.44944 171.548 8.94382 173.383 9.93258C175.248 10.9213 176.679 12.3146 177.674 14.1124C178.7 15.8801 179.213 17.9176 179.213 20.2247C179.213 22.5618 178.7 24.6292 177.674 26.427C176.679 28.1948 175.248 29.573 173.383 30.5618C171.548 31.5206 169.434 32 167.04 32ZM167.04 27.8652C169.154 27.8652 170.849 27.161 172.124 25.7528C173.429 24.3146 174.082 22.4719 174.082 20.2247C174.082 17.9775 173.429 16.1498 172.124 14.7416C170.849 13.3034 169.154 12.5843 167.04 12.5843C164.926 12.5843 163.231 13.3034 161.956 14.7416C160.682 16.1498 160.044 17.9775 160.044 20.2247C160.044 22.4719 160.682 24.3146 161.956 25.7528C163.231 27.161 164.926 27.8652 167.04 27.8652Z" fill="black"/>
<path d="M201.871 8.7191V31.7303H197.441L196.881 28.809C195.078 30.9363 192.622 32 189.512 32C186.714 32 184.444 31.161 182.703 29.4831C180.962 27.8052 180.091 25.1086 180.091 21.3933V8.7191H185.128V20.8989C185.128 23.1461 185.595 24.8539 186.528 26.0225C187.46 27.191 188.844 27.7753 190.678 27.7753C192.606 27.7753 194.114 27.1011 195.202 25.7528C196.29 24.3745 196.835 22.5019 196.835 20.1348V8.7191H201.871Z" fill="black"/>
<path d="M205.713 12.9888H201.562V8.7191H205.713V2.29213H210.796V8.7191H216.533V12.9888H210.796V24.9888C210.796 25.8876 210.983 26.5318 211.356 26.9213C211.729 27.2809 212.366 27.4607 213.268 27.4607H217.092V31.7303H212.242C209.972 31.7303 208.309 31.221 207.252 30.2022C206.226 29.1835 205.713 27.6105 205.713 25.4831V12.9888Z" fill="black"/>
<path d="M1.28281 21.5147C0.625302 16.0502 4.52218 11.0872 9.98673 10.4297L36.9077 7.19052C42.3722 6.53301 47.3352 10.4299 47.9927 15.8944C48.6502 21.359 44.7533 26.3219 39.2888 26.9794L12.3678 30.2186C6.90323 30.8761 1.94032 26.9793 1.28281 21.5147Z" fill="#39F592" stroke="black" stroke-width="0.8"/>
<path d="M11.9951 26.9351C9.56472 27.2369 7.62437 26.4932 7.09229 24.5527L9.59699 23.4985C9.76079 25.5219 10.9597 26.5435 12.2192 26.387C13.4256 26.2372 14.2413 25.2069 14.0919 23.9249C13.7313 20.8298 8.11841 22.0843 7.67662 18.2932C7.42051 16.0955 9.10823 14.3624 12.0886 13.9922C14.1997 13.73 16.118 14.4393 16.677 16.3022L14.2987 17.3593C14.2081 15.8099 13.195 14.375 11.9355 14.5315C10.7469 14.6791 9.99564 15.6456 10.1258 16.7628C10.4588 19.6198 16.2888 18.3755 16.7476 22.3131C17.0315 24.7489 15.0819 26.5517 11.9951 26.9351Z" fill="black"/>
<path d="M22.6493 23.661C23.7137 23.5288 24.7709 23.0259 25.3567 21.8756L25.5604 21.9246C25.0849 24.176 23.7071 25.4805 21.5783 25.7449C19.2189 26.0379 17.4947 24.5242 17.2045 22.0334C16.8075 18.627 18.8356 16.1084 21.8869 15.7294C24.1222 15.4518 25.3224 16.176 25.4505 17.2748C25.666 19.1246 23.8162 19.9303 20.7268 20.9085L19.8788 21.1996C20.144 22.8574 21.1946 23.8417 22.6493 23.661ZM21.6628 16.2775C20.3146 16.4449 19.6922 18.8261 19.8191 20.6868L20.6315 20.4001C21.9967 19.9147 23.0495 18.9107 22.8852 17.5005C22.8254 16.9877 22.4612 16.1783 21.6628 16.2775Z" fill="black"/>
<path d="M28.9111 24.8342C27.8112 24.9708 27.1043 24.464 26.9933 23.5117C26.9528 23.1637 26.964 22.6421 26.9696 22.3813L27.2736 13.8713C27.3054 13.2171 27.0825 13.0032 26.4665 12.9683L26.0876 12.9596L26.0932 12.6988L29.7502 11.1856L29.9986 11.1547L29.6079 22.1651C29.5916 22.3343 29.5946 22.6684 29.6159 22.8515C29.6607 23.2361 29.8992 23.4295 30.2186 23.3898C30.5201 23.3523 30.7912 23.2072 31.2615 22.61L31.4581 22.7528C30.8588 23.942 30.0288 24.6953 28.9111 24.8342Z" fill="black"/>
<path d="M31.9926 24.1913L32.332 15.2125L30.8596 15.3954L30.8708 14.8737L32.3432 14.6909L32.3764 14.2037C32.4446 11.8542 34.2487 10.3482 36.5727 10.0595C38.1161 9.86785 39.1522 10.1107 39.6216 11.2044L37.6208 12.5676C37.5595 11.4233 37.1292 10.5106 36.4373 10.5966C35.4793 10.7156 35.0512 12.2922 35.0253 13.6146L35.0042 14.3604L37.4524 14.0563L37.4412 14.5779L34.9753 14.8842L34.6181 23.8652L31.9926 24.1913Z" fill="black"/>
<path d="M36.9646 19.1148L37.0606 17.4679L43.0923 16.7187L43.014 18.3634L36.9646 19.1148Z" fill="black"/>
</svg>
