<svg width="39" height="39" viewBox="0 0 39 39" fill="none" xmlns="http://www.w3.org/2000/svg">
<path fill-rule="evenodd" clip-rule="evenodd" d="M0.0569573 0L14.2394 6.19888e-06V14.1284L0.0569573 14.1284V0ZM35.3421 35.4401L39 35.4401V39L35.3421 39V35.4401ZM28.4218 35.4338H32.0227V38.9968H28.4218H28.4186H24.8208V31.8897H28.3078V28.3743H31.855V21.3658H35.456V24.8113L38.943 24.8113V28.3712L35.456 28.3712V31.9311H31.9088H31.855H28.4218V35.4338ZM17.7296 28.3171H21.2167V24.7572H17.8435V21.1973H21.2167V17.6374H17.7866V21.1973H14.1824V17.6374H17.7265V7.06578H21.3274V17.6342H24.8145V21.1941H28.2446V17.6342H31.8455V21.1941H28.4218V24.754H24.8208V31.7626H21.3306V39H17.7296V28.3171ZM35.282 17.6342L38.9399 17.6342V21.1941L35.282 21.1941V17.6342ZM7.15139 17.6342H10.7524V21.1941H7.15139V17.6342ZM0.0569573 17.6342L3.71813 17.6342V21.1941L0.0569573 21.1941V17.6342ZM17.7296 6.19888e-06H21.3306V3.55991H17.7296V6.19888e-06ZM0 24.8113L14.1824 24.8113L14.2427 39L0.0602081 39L0 24.8113ZM3.4903 28.244H10.7524V35.51H3.4903V28.244ZM24.7607 6.19888e-06L38.9399 0V14.1284L24.7607 14.1284V6.19888e-06ZM28.1939 3.43278H35.456V10.6988H28.1939V3.43278ZM3.54726 3.43278H10.8093V10.6988H3.54726V3.43278Z" fill="black"/>
</svg>
