<svg width="71" height="50" viewBox="0 0 71 50" fill="none" xmlns="http://www.w3.org/2000/svg">
<g clip-path="url(#clip0_25_191)">
<path d="M39.0898 12.3635C38.7057 13.7555 37.4352 14.6561 37.4352 14.6561C37.4352 14.6561 36.7852 13.3188 37.1693 11.9269C37.5534 10.5349 38.8239 9.63428 38.8239 9.63428C38.8239 9.63428 39.4739 10.9716 39.0898 12.3635Z" fill="#FFB600"/>
<path d="M41.6899 11.0262C41.4536 12.4454 40.2717 13.4279 40.2717 13.4279C40.2717 13.4279 39.5035 12.1452 39.7399 10.726C39.9762 9.30677 41.1581 8.32423 41.1581 8.32423C41.1581 8.32423 41.9263 9.60699 41.6899 11.0262Z" fill="#FFB600"/>
<path d="M44.3491 9.79804C43.965 11.19 42.724 12.0906 42.724 12.0906C42.724 12.0906 42.074 10.7533 42.4286 9.36136C42.7831 7.96943 44.0536 7.06878 44.0536 7.06878C44.0536 7.06878 44.7037 8.43341 44.3491 9.79804Z" fill="#FFB600"/>
<path d="M46.9788 8.18777C46.6537 9.57969 45.4423 10.5349 45.4423 10.5349C45.4423 10.5349 44.7332 9.22489 45.0287 7.80567C45.3537 6.41375 46.5651 5.45851 46.5651 5.45851C46.5651 5.45851 47.2742 6.79585 46.9788 8.18777Z" fill="#FFB600"/>
<path d="M49.6675 6.55022C49.2834 7.94214 48.0129 8.8428 48.0129 8.8428C48.0129 8.8428 47.3629 7.47817 47.747 6.11354C48.1311 4.72162 49.4016 3.82096 49.4016 3.82096C49.4016 3.82096 50.0516 5.18559 49.6675 6.55022Z" fill="#FFB600"/>
<path d="M52.3857 5.67685C51.8539 7.01419 50.5243 7.80568 50.5243 7.80568C50.5243 7.80568 50.022 6.41375 50.5243 5.04912C51.0266 3.6845 52.3857 2.9203 52.3857 2.9203C52.3857 2.9203 52.9175 4.31222 52.3857 5.67685Z" fill="#FFB600"/>
<path d="M55.104 4.47599C54.4835 5.78603 53.0653 6.49564 53.0653 6.49564C53.0653 6.49564 52.6517 5.07642 53.2721 3.76638C53.8926 2.45633 55.3108 1.74673 55.3108 1.74673C55.3108 1.74673 55.7245 3.16594 55.104 4.47599Z" fill="#FFB600"/>
<path d="M57.9995 3.52074C57.1131 4.69432 55.6062 5.131 55.6062 5.131C55.6062 5.131 55.5176 3.6572 56.3745 2.48362C57.2608 1.31004 58.7677 0.87336 58.7677 0.87336C58.7677 0.87336 58.8859 2.31987 57.9995 3.52074Z" fill="#FFB600"/>
<path d="M61.6633 2.34716C60.4519 3.24782 58.8564 3.27511 58.8564 3.27511C58.8564 3.27511 59.2109 1.8286 60.3928 0.927948C61.5747 0.0272926 63.1997 0 63.1997 0C63.1997 0 62.8747 1.44651 61.6633 2.34716Z" fill="#FFB600"/>
<path d="M40.8331 15.2565C39.3557 14.7926 37.8489 15.2838 37.8489 15.2838C37.8489 15.2838 38.7353 16.512 40.183 16.976C41.6604 17.44 43.1672 16.9487 43.1672 16.9487C43.1672 16.9487 42.2808 15.7205 40.8331 15.2565Z" fill="#FFB600"/>
<path d="M43.4627 14.0011C42.0445 13.4279 40.5081 13.7827 40.5081 13.7827C40.5081 13.7827 41.2467 15.0928 42.6649 15.6659C44.0832 16.2391 45.6196 15.8843 45.6196 15.8843C45.6196 15.8843 44.8809 14.6015 43.4627 14.0011Z" fill="#FFB600"/>
<path d="M46.0037 12.6092C44.5263 12.1452 43.0195 12.6365 43.0195 12.6365C43.0195 12.6365 43.8763 13.8919 45.3536 14.3559C46.831 14.8199 48.3378 14.3286 48.3378 14.3286C48.3378 14.3286 47.4514 13.0731 46.0037 12.6092Z" fill="#FFB600"/>
<path d="M48.8992 11.4356C47.4515 10.917 45.915 11.3537 45.915 11.3537C45.915 11.3537 46.7128 12.6365 48.1606 13.155C49.6083 13.6736 51.1448 13.2369 51.1448 13.2369C51.1448 13.2369 50.347 11.9814 48.8992 11.4356Z" fill="#FFB600"/>
<path d="M51.8539 10.262C50.3766 9.79803 48.8697 10.2893 48.8697 10.2893C48.8697 10.2893 49.7561 11.5175 51.2039 11.9814C52.6516 12.4454 54.188 11.9541 54.188 11.9541C54.188 11.9541 53.3312 10.726 51.8539 10.262Z" fill="#FFB600"/>
<path d="M54.1585 8.62445C52.6516 8.29694 51.2039 8.89737 51.2039 8.89737C51.2039 8.89737 52.1789 10.071 53.6858 10.3985C55.1926 10.726 56.6404 10.1255 56.6404 10.1255C56.6404 10.1255 55.6654 8.95196 54.1585 8.62445Z" fill="#FFB600"/>
<path d="M56.6995 7.17795C55.1631 6.93231 53.7744 7.64192 53.7744 7.64192C53.7744 7.64192 54.8381 8.73362 56.3745 8.97926C57.9109 9.22489 59.2996 8.51528 59.2996 8.51528C59.2996 8.51528 58.2359 7.42358 56.6995 7.17795Z" fill="#FFB600"/>
<path d="M59.1814 5.45852C57.6449 5.48581 56.404 6.44105 56.404 6.44105C56.404 6.44105 57.6745 7.31441 59.2404 7.28712C60.7769 7.25983 62.0178 6.30459 62.0178 6.30459C62.0178 6.30459 60.7178 5.40393 59.1814 5.45852Z" fill="#FFB600"/>
<path d="M62.2247 3.24781C60.7474 3.68449 59.861 4.91266 59.861 4.91266C59.861 4.91266 61.3678 5.43122 62.8451 4.99454C64.3225 4.55786 65.2089 3.32969 65.2089 3.32969C65.2089 3.32969 63.702 2.83842 62.2247 3.24781Z" fill="#FFB600"/>
<path d="M27.5076 50C23.5188 44.8144 22.2484 38.3188 23.8734 31.7686C25.6166 24.7271 30.5213 18.3952 36.6965 15.2566L36.8443 15.5022C30.7577 18.6135 25.9121 24.8635 24.1689 31.8504C22.5734 38.3188 23.8439 44.7052 27.7735 49.8635L27.5076 50Z" fill="#FFB600"/>
<path d="M22.3961 43.1496C7.97747 36.2173 7.00244 38.5644 7.00244 38.5644C7.12063 33.8974 22.928 42.1125 23.0166 42.7948C23.0461 42.9585 23.1939 43.559 22.3961 43.1496Z" fill="#59611D"/>
<path d="M14.9505 35.3439C14.8323 35.3985 14.6846 35.3712 14.5959 35.262L13.9755 34.4159L13.7686 34.6343V35.1801C13.7686 35.3166 13.6505 35.3985 13.5323 35.3985C13.3845 35.3985 13.2959 35.2893 13.2959 35.1801V33.3515C13.2959 33.2151 13.4141 33.1332 13.5323 33.1332C13.68 33.1332 13.7686 33.2424 13.7686 33.3515V34.0065L14.5959 33.2151C14.7141 33.1332 14.8619 33.1059 14.9505 33.2151C15.0391 33.2969 15.0391 33.4334 14.921 33.5426L14.3005 34.1157L15.0096 35.0437C15.0982 35.1255 15.0687 35.2893 14.9505 35.3439Z" fill="#786329"/>
<path d="M17.7869 35.3712C17.6392 35.4258 17.521 35.3439 17.4619 35.262L17.2847 34.798H16.5755L16.3983 35.262C16.3392 35.3712 16.221 35.4258 16.0733 35.3985C15.9255 35.3439 15.896 35.2074 15.9255 35.0983L16.6937 33.2424C16.7233 33.1605 16.8119 33.1332 16.9005 33.1332C16.9892 33.1332 17.0778 33.1605 17.1369 33.2424L17.9051 35.1255C17.9642 35.1801 17.9051 35.3166 17.7869 35.3712ZM16.9301 33.9247L16.7528 34.3341H17.0778L16.9301 33.9247Z" fill="#786329"/>
<path d="M20.5939 33.3242C20.5939 33.4607 20.5052 33.5426 20.3575 33.5426H19.3234V33.9793H20.003C20.1507 33.9793 20.2393 34.0884 20.2393 34.1976C20.2393 34.3068 20.1211 34.4159 20.003 34.4159H19.3234V35.1528C19.3234 35.2893 19.2052 35.3712 19.087 35.3712C18.9393 35.3712 18.8506 35.2893 18.8506 35.1528V33.2969C18.8506 33.1605 18.9393 33.0786 19.087 33.0786H20.3575C20.4757 33.0786 20.5939 33.1878 20.5939 33.3242Z" fill="#786329"/>
<path d="M21.7166 35.3712C21.5689 35.3712 21.4802 35.2893 21.4802 35.1528V33.2969C21.4802 33.1605 21.5689 33.0786 21.7166 33.0786C21.8643 33.0786 21.953 33.1605 21.953 33.2969V35.1528C21.953 35.2893 21.8643 35.3712 21.7166 35.3712Z" fill="#786329"/>
<path d="M24.7894 34.4432C24.7894 34.2522 24.9372 34.0884 25.144 34.0884C25.3508 34.0884 25.4985 34.2249 25.4985 34.4432C25.4985 34.6343 25.3508 34.7707 25.144 34.7707C24.9372 34.798 24.7894 34.6343 24.7894 34.4432Z" fill="#786329"/>
<path d="M30.1373 33.2969V35.1528C30.1373 35.2893 30.0487 35.3712 29.901 35.3712C29.7532 35.3712 29.6646 35.2893 29.6646 35.1528V34.3887H28.8373V35.1528C28.8373 35.2893 28.7487 35.3712 28.6009 35.3712C28.4532 35.3712 28.3646 35.2893 28.3646 35.1528V33.2969C28.3646 33.1878 28.4827 33.0786 28.6009 33.0786C28.7191 33.0786 28.8373 33.1878 28.8373 33.2969V33.952H29.6646V33.2969C29.6646 33.1878 29.7828 33.0786 29.901 33.0786C30.0192 33.0786 30.1373 33.1878 30.1373 33.2969Z" fill="#786329"/>
<path d="M32.0283 35.4258C31.4669 35.4258 31.0237 34.8799 31.0237 34.2249C31.0237 33.5699 31.4669 33.024 32.0283 33.024C32.5897 33.024 33.0624 33.5699 33.0624 34.2249C33.0624 34.8799 32.5897 35.4258 32.0283 35.4258ZM32.0283 33.488C31.7624 33.488 31.4965 33.8155 31.4965 34.2249C31.4965 34.6343 31.7329 34.9618 32.0283 34.9618C32.3238 34.9618 32.5602 34.6343 32.5602 34.2249C32.5602 33.8155 32.3238 33.488 32.0283 33.488Z" fill="#786329"/>
<path d="M35.6921 33.3242C35.6921 33.4607 35.6035 33.5426 35.4557 33.5426H34.4216V33.9793H35.1012C35.2489 33.9793 35.3375 34.0884 35.3375 34.1976C35.3375 34.3068 35.2193 34.4159 35.1012 34.4159H34.4216V35.1528C34.4216 35.2893 34.3034 35.3712 34.1852 35.3712C34.0375 35.3712 33.9489 35.2893 33.9489 35.1528V33.2969C33.9489 33.1605 34.0375 33.0786 34.1852 33.0786H35.4557C35.6035 33.0786 35.6921 33.1878 35.6921 33.3242Z" fill="#786329"/>
<path d="M38.3808 35.1528C38.3808 35.2893 38.2626 35.3712 38.1445 35.3712H36.8149C36.6671 35.3712 36.5785 35.2893 36.5785 35.1528V33.3242C36.5785 33.1878 36.6967 33.1059 36.8149 33.1059C36.9626 33.1059 37.0512 33.2151 37.0512 33.3242V34.9345H38.1445C38.2922 34.9345 38.3808 35.0437 38.3808 35.1528Z" fill="#786329"/>
<path d="M41.1286 35.3712C40.9809 35.4258 40.8627 35.3439 40.8036 35.262L40.6263 34.798H39.9172L39.7399 35.262C39.6808 35.3712 39.5627 35.4258 39.4149 35.3985C39.2672 35.3439 39.2376 35.2074 39.2672 35.0983L40.0354 33.2424C40.0649 33.1605 40.1536 33.1332 40.2422 33.1332C40.3309 33.1332 40.4195 33.1605 40.4786 33.2424L41.2468 35.1255C41.3059 35.1801 41.2468 35.3166 41.1286 35.3712ZM40.3013 33.9247L40.124 34.3341H40.449L40.3013 33.9247Z" fill="#786329"/>
<path d="M43.0491 35.3712C43.0196 35.3712 43.0196 35.3712 42.99 35.3712H42.4286C42.2809 35.3712 42.1923 35.262 42.1923 35.1528V33.3242C42.1923 33.2151 42.2809 33.1059 42.4286 33.1059H42.99C43.5809 33.1059 43.9355 33.5699 43.9355 34.2522C43.965 34.8799 43.6105 35.3166 43.0491 35.3712ZM43.4628 34.2249C43.4628 33.7882 43.2855 33.5153 42.9605 33.5153H42.6355V34.9072H42.9014C43.4332 34.9345 43.4628 34.4705 43.4628 34.2249Z" fill="#786329"/>
<path d="M46.6242 35.1528C46.6242 35.262 46.506 35.3712 46.3879 35.3712H45.0878C44.9696 35.3712 44.8514 35.262 44.8514 35.1528V33.2969C44.8514 33.2697 44.8514 33.2697 44.8514 33.2424C44.881 33.1332 44.9696 33.0786 45.0878 33.0786H46.2697C46.4174 33.0786 46.506 33.1605 46.506 33.2969C46.506 33.4334 46.4174 33.5153 46.2697 33.5153H45.3242V33.952H45.9742C46.0924 33.952 46.2106 34.0611 46.2106 34.1703C46.2106 34.3068 46.1219 34.3887 45.9742 34.3887H45.3242V34.9072H46.3879C46.5356 34.9345 46.6242 35.0164 46.6242 35.1528Z" fill="#786329"/>
<path d="M49.047 35.3712H48.9584C48.8107 35.3712 48.7516 35.262 48.722 35.2074L47.9834 33.9793V35.1528C47.9834 35.2893 47.8652 35.3712 47.747 35.3712C47.5993 35.3712 47.5106 35.262 47.5106 35.1528V33.2969C47.5106 33.1605 47.5993 33.0786 47.747 33.0786H47.8652C47.9834 33.0786 48.072 33.1332 48.1311 33.2151L48.8107 34.4159V33.2969C48.8107 33.1605 48.9288 33.0786 49.047 33.0786C49.1948 33.0786 49.2834 33.1878 49.2834 33.2969V35.1528C49.2834 35.2893 49.1948 35.3712 49.047 35.3712Z" fill="#786329"/>
<path d="M52.1199 34.4432C52.1199 34.2522 52.2676 34.0884 52.4744 34.0884C52.6813 34.0884 52.829 34.2249 52.829 34.4432C52.829 34.6343 52.6813 34.7707 52.4744 34.7707C52.2676 34.798 52.1199 34.6343 52.1199 34.4432Z" fill="#786329"/>
<path d="M56.5813 35.3712C56.1972 35.3712 55.8722 35.1801 55.7245 34.8799C55.6359 34.7435 55.695 34.5797 55.8427 34.5524C55.9609 34.5251 56.0495 34.5524 56.1086 34.6616C56.2268 34.8526 56.3745 34.9345 56.5518 34.9345C56.7882 34.9345 56.9654 34.8253 56.9654 34.6889C56.9654 34.5251 56.9064 34.4978 56.5223 34.4432C56.1972 34.3886 55.6654 34.3068 55.6654 33.7609C55.6654 33.3515 56.02 33.0786 56.5518 33.0786C56.9064 33.0786 57.1723 33.2697 57.32 33.5699C57.3791 33.7063 57.32 33.8701 57.1723 33.8974C57.0541 33.9247 56.9655 33.8701 56.9064 33.7882C56.8177 33.679 56.7586 33.5426 56.5813 33.5426C56.3154 33.5426 56.1677 33.6518 56.1677 33.8155C56.1677 33.952 56.2859 34.0066 56.6404 34.0884C56.9359 34.143 57.4677 34.1976 57.4677 34.7435C57.4382 35.0983 57.0836 35.3712 56.5813 35.3712Z" fill="#786329"/>
<path d="M59.2996 35.3712C58.7087 35.3712 58.3246 34.9345 58.3246 34.2249C58.3246 33.5153 58.7087 33.0786 59.2701 33.0786C59.7133 33.0786 60.0678 33.3788 60.0678 33.7609C60.0678 33.8974 59.9792 33.9793 59.8315 33.9793C59.7133 33.9793 59.5951 33.8701 59.5951 33.7609C59.5951 33.6517 59.4178 33.5426 59.2701 33.5426C58.9746 33.5426 58.7973 33.7882 58.7973 34.2522C58.7973 34.6889 59.0042 34.9618 59.2996 34.9618C59.5064 34.9618 59.6542 34.798 59.6837 34.5524C59.6837 34.4432 59.7724 34.3614 59.9201 34.3614C60.0678 34.3614 60.1565 34.4978 60.1269 34.6343C60.0974 35.071 59.7428 35.3712 59.2996 35.3712Z" fill="#786329"/>
<path d="M62.8452 33.2969V35.1528C62.8452 35.2893 62.7566 35.3712 62.6089 35.3712C62.4611 35.3712 62.3725 35.2893 62.3725 35.1528V34.3887H61.5452V35.1528C61.5452 35.2893 61.4566 35.3712 61.3088 35.3712C61.1611 35.3712 61.0724 35.2893 61.0724 35.1528V33.2969C61.0724 33.1878 61.1906 33.0786 61.3088 33.0786C61.427 33.0786 61.5452 33.1878 61.5452 33.2969V33.952H62.3725V33.2969C62.3725 33.1878 62.4907 33.0786 62.6089 33.0786C62.727 33.0786 62.8452 33.1878 62.8452 33.2969Z" fill="#786329"/>
<path d="M65.5339 33.3242V34.607C65.5339 35.0983 65.1793 35.4258 64.618 35.4258C64.0861 35.4258 63.702 35.0983 63.702 34.607V33.3242C63.702 33.1878 63.7907 33.0786 63.9384 33.0786C64.0861 33.0786 64.1748 33.1878 64.1748 33.3242V34.607C64.1748 34.8253 64.352 34.9618 64.5884 34.9618C64.8248 34.9618 65.0021 34.8253 65.0021 34.607V33.3242C65.0021 33.1878 65.0907 33.0786 65.2384 33.0786C65.3862 33.0786 65.5339 33.1878 65.5339 33.3242Z" fill="#786329"/>
<path d="M68.2522 35.1528C68.2522 35.2893 68.134 35.3712 68.0159 35.3712H66.6863C66.5385 35.3712 66.4499 35.2893 66.4499 35.1528V33.3242C66.4499 33.1878 66.5681 33.1059 66.6863 33.1059C66.834 33.1059 66.9226 33.2151 66.9226 33.3242V34.9345H68.0159C68.134 34.9345 68.2522 35.0437 68.2522 35.1528Z" fill="#786329"/>
<path d="M70.9114 35.1528C70.9114 35.262 70.7932 35.3712 70.675 35.3712H69.375C69.2568 35.3712 69.1386 35.262 69.1386 35.1528V33.2969C69.1386 33.2697 69.1386 33.2697 69.1386 33.2424C69.1682 33.1332 69.2568 33.0786 69.375 33.0786H70.5568C70.7046 33.0786 70.7932 33.1605 70.7932 33.2969C70.7932 33.4334 70.7046 33.5153 70.5568 33.5153H69.6114V33.952H70.2614C70.3796 33.952 70.4977 34.0611 70.4977 34.1703C70.4977 34.3068 70.4091 34.3887 70.2614 34.3887H69.6114V34.9072H70.675C70.8228 34.9345 70.9114 35.0164 70.9114 35.1528Z" fill="#786329"/>
<path d="M5.52518 22.8439V28.548C5.52518 28.9301 5.20017 29.2303 4.78652 29.2303C4.37287 29.2303 4.04786 28.9301 4.04786 28.548V26.2282H1.47733V28.548C1.47733 28.9301 1.18186 29.2303 0.738665 29.2303C0.295469 29.2303 -0.029541 28.9301 -0.029541 28.548V22.8439C-0.029541 22.4891 0.295469 22.1616 0.738665 22.1616C1.12277 22.1616 1.47733 22.4891 1.47733 22.8439V24.8635H4.04786V22.8439C4.04786 22.4891 4.40242 22.1616 4.78652 22.1616C5.20017 22.1616 5.52518 22.4891 5.52518 22.8439Z" fill="#786329"/>
<path d="M14.2118 28.548C14.2118 28.9028 13.8868 29.2303 13.4732 29.2303H9.42531C9.01166 29.2303 8.68665 28.9028 8.68665 28.548V22.8439C8.68665 22.7893 8.68665 22.7347 8.71619 22.6801C8.80483 22.3799 9.07075 22.1616 9.42531 22.1616H13.1186C13.5913 22.1616 13.8868 22.4345 13.8868 22.8439C13.8868 23.226 13.5618 23.5262 13.1186 23.5262H10.164V24.8635H12.1436C12.5572 24.8635 12.8822 25.1638 12.8822 25.5458C12.8822 25.9279 12.5868 26.2282 12.1436 26.2282H10.164V27.8657H13.4732C13.8868 27.8657 14.2118 28.1659 14.2118 28.548Z" fill="#786329"/>
<path d="M18.112 29.2303C17.6983 29.2303 17.3733 28.9301 17.3733 28.548V22.8439C17.3733 22.4618 17.6983 22.1616 18.112 22.1616C18.5256 22.1616 18.8802 22.4618 18.8802 22.8439V28.548C18.8506 28.9574 18.5256 29.2303 18.112 29.2303Z" fill="#786329"/>
<path d="M26.7395 29.2303H26.4736C26.0009 29.2303 25.8531 28.8755 25.7054 28.6845L23.4599 24.8908V28.548C23.4599 28.9301 23.1349 29.2576 22.7212 29.2576C22.3076 29.2576 21.9825 28.9574 21.9825 28.548V22.8439C21.9825 22.4618 22.278 22.1616 22.7212 22.1616H23.0462C23.4008 22.1616 23.6667 22.3253 23.844 22.6255L26.0009 26.31V22.8712C26.0009 22.4891 26.3259 22.1616 26.7395 22.1616C27.1532 22.1616 27.4782 22.4618 27.4782 22.8712V28.5753C27.4486 28.9574 27.1532 29.2303 26.7395 29.2303Z" fill="#786329"/>
<path d="M31.3488 29.2303C30.9351 29.2303 30.6101 28.9301 30.6101 28.548V22.8439C30.6101 22.4618 30.9351 22.1616 31.3488 22.1616C31.7624 22.1616 32.117 22.4618 32.117 22.8439V28.548C32.117 28.9574 31.792 29.2303 31.3488 29.2303Z" fill="#786329"/>
<path d="M38.1739 29.2303C36.4898 29.2303 35.2784 27.7838 35.2784 25.8188C35.2784 23.7172 36.4898 22.1616 38.1739 22.1616C39.3853 22.1616 40.3013 22.7893 40.6263 23.881C40.7445 24.2631 40.5081 24.6179 40.0649 24.6998C39.6808 24.7544 39.3262 24.5633 39.1785 24.2085C39.1194 24.0448 38.9421 23.4989 38.1739 23.4989C37.4057 23.4989 36.7262 24.5906 36.7262 25.8461C36.7262 27.1288 37.258 27.8657 38.1739 27.8657C38.8535 27.8657 39.2671 27.5655 39.2671 27.1015V26.7467H38.5285C38.1148 26.7467 37.7898 26.4465 37.7898 26.0917C37.7898 25.7369 38.1148 25.4367 38.5285 25.4367H40.0058C40.4195 25.4367 40.7149 25.7096 40.7149 26.0917V27.1288C40.7149 28.357 39.6512 29.2303 38.1739 29.2303Z" fill="#786329"/>
<path d="M49.4016 28.548C49.4016 28.9028 49.0766 29.2303 48.6629 29.2303H44.6151C44.2014 29.2303 43.8764 28.9028 43.8764 28.548V22.8439C43.8764 22.7893 43.8764 22.7347 43.906 22.6801C43.9946 22.3799 44.2605 22.1616 44.6151 22.1616H48.3084C48.7811 22.1616 49.0766 22.4345 49.0766 22.8439C49.0766 23.226 48.7516 23.5262 48.3084 23.5262H45.3537V24.8635H47.3333C47.747 24.8635 48.072 25.1638 48.072 25.5458C48.072 25.9279 47.7765 26.2282 47.3333 26.2282H45.3537V27.8657H48.6629C49.0766 27.8657 49.4016 28.1659 49.4016 28.548Z" fill="#786329"/>
<path d="M57.7632 29.1758C57.3791 29.3395 56.9655 29.1758 56.7882 28.821L55.37 26.1736H54.0404V28.5207C54.0404 28.9301 53.7449 29.2303 53.3017 29.2303C52.8881 29.2303 52.5335 28.9301 52.5335 28.5207V22.8439C52.5335 22.4618 52.8585 22.1616 53.2722 22.1616H55.9609C57.1427 22.1616 58.1178 23.0622 58.1178 24.1812C58.1178 24.9727 57.6155 25.655 56.9064 25.9552L58.0882 28.2205C58.3246 28.6026 58.1473 29.0393 57.7632 29.1758ZM54.0404 24.8089H55.9609C56.3154 24.8089 56.6405 24.5087 56.6405 24.1812C56.6405 23.8264 56.3154 23.5535 55.9609 23.5535H54.0404V24.8089Z" fill="#786329"/>
<path d="M60.9247 24.8362C60.6883 24.8362 60.4519 24.7271 60.3337 24.536C60.1565 24.2631 60.0383 23.8537 60.0383 23.4716C60.0678 22.9258 60.2451 22.4618 60.5997 22.107C60.8656 21.8341 61.3383 21.8341 61.6042 22.0797C61.8997 22.3253 61.9292 22.7347 61.6338 23.0076C61.4565 23.1714 61.427 23.6354 61.5451 23.7718C61.7815 24.0993 61.6633 24.5087 61.3383 24.6725C61.2201 24.7817 61.0428 24.8362 60.9247 24.8362Z" fill="#786329"/>
<path d="M68.3113 29.2303C67.159 29.2303 66.0953 28.6299 65.6521 27.702C65.4158 27.2653 65.593 26.8013 66.0362 26.6921C66.3612 26.583 66.7158 26.7194 66.8931 26.9924C67.2181 27.5655 67.7204 27.8657 68.3113 27.8657C69.0795 27.8657 69.5522 27.5655 69.5522 27.1288C69.5522 26.6648 69.375 26.5557 68.1636 26.3646C67.159 26.2009 65.5044 25.9279 65.5044 24.2904C65.5044 23.0349 66.5976 22.1616 68.1931 22.1616C69.2568 22.1616 70.0841 22.7074 70.5568 23.69C70.7637 24.1266 70.5273 24.5906 70.0841 24.6725C69.7591 24.7544 69.4636 24.6179 69.2568 24.2904C68.9909 23.9083 68.784 23.4989 68.2227 23.4989C67.4249 23.4989 66.9817 23.8264 66.9817 24.3177C66.9817 24.6998 67.3067 24.8908 68.459 25.1365C69.4045 25.3002 71.0296 25.5186 71.0296 27.1834C71 28.3843 69.8773 29.2303 68.3113 29.2303Z" fill="#786329"/>
</g>
<defs>
<clipPath id="clip0_25_191">
<rect width="71" height="50" fill="white"/>
</clipPath>
</defs>
</svg>
